<svg width="303" height="217" viewBox="0 0 303 217" fill="none" xmlns="http://www.w3.org/2000/svg">
<g clip-path="url(#clip0_228_592)">
<path d="M303 216.649H0L46.7282 174.627C51.5108 170.327 57.0783 166.989 63.1254 164.797L102.623 150.483C109.539 147.977 115.338 143.093 118.984 136.704L131.974 113.944C137.179 104.823 146.648 98.9576 157.133 98.3599L177.801 97.1818C189.755 96.5004 200.247 88.9957 204.755 77.9034L209.622 65.9292C213.529 56.3134 221.99 49.2914 232.162 47.2226L257.382 42.0926C263.971 40.7523 269.946 37.3058 274.405 32.2729L303 0V216.649Z" fill="#0063F7" fill-opacity="0.72"/>
<path d="M303 216.65H27.0537L68.9637 179.078C73.7461 174.791 79.3096 171.465 85.3503 169.282L119.559 156.923C126.474 154.425 132.276 149.55 135.929 143.17L146.491 124.72C151.702 115.617 161.163 109.767 171.635 109.172L187.251 108.285C199.195 107.606 209.682 100.115 214.198 89.0365L217.387 81.2141C221.304 71.6075 229.766 64.5966 239.933 62.5349L260.563 58.3516C267.143 57.0173 273.113 53.5825 277.573 48.5639L303 19.9551V216.65Z" fill="#0063F7" fill-opacity="0.968627"/>
</g>
<defs>
<clipPath id="clip0_228_592">
<rect width="303" height="217" fill="white"/>
</clipPath>
</defs>
</svg>
